<?xml version="1.0" encoding="utf-8"?>
<!-- Generator: Adobe Illustrator 19.2.1, SVG Export Plug-In . SVG Version: 6.00 Build 0)  -->
<svg version="1.1" id="_x2014_ÎÓÈ_x5F_1" xmlns="http://www.w3.org/2000/svg" xmlns:xlink="http://www.w3.org/1999/xlink"
	 x="0px" y="0px" viewBox="0 0 460 460" style="enable-background:new 0 0 460 460;" xml:space="preserve">
<style type="text/css">
	.st0{fill:#39B54A;}
	.st1{fill:#159E43;}
	.st2{fill:#FFFFFF;}
	.st3{fill:#C1272D;stroke:#FFFFFF;stroke-width:4;stroke-miterlimit:10;}
	.st4{fill:#C1272D;}
	.st5{fill:#AD1E1E;}
</style>
<circle class="st0" cx="-1257.5" cy="-89.8" r="228"/>
<path class="st1" d="M-1033-50l-170.5-170.5l-37.1,51.9l28.1,138.9l-98.7-98.7l-66.5,151.7l114.8,114.8c1.8,0,3.6,0.1,5.4,0.1
	C-1145.2,138.1-1051.8,56.9-1033-50z"/>
<g>
	<path class="st2" d="M-1297.8,13.5c0,0,0-129.4,0-129.8c0-1,4.1-4.1,4.8-4.8c3.7-3.8,7.1-7.8,10.6-11.7
		c7.5-8.2,15.3-15.6,21.8-24.8c9.1-12.9,16.4-26.9,23.2-41.1c2.9-6,5-13.2,9.6-18c3.4-3.6,11.7-9.7,17.3-8c7,2.2,11.4,8.3,12.2,14
		c1.6,10.4,2.5,21.1,0.1,31.5c-2.1,9.4-5.8,18.4-11,26.5c-3.2,5-10.9,16.2-9.7,22.5c0.5,2.7,33.5,0.6,36.3,0.6
		c8.6-0.1,17.2-0.3,25.8-0.4c16.2-0.2,35.1,9.5,28.2,29c-2.8,8.1-10.3,9.1-15.7,14.5c6,6.1,11.7,11.9,9.5,21.5
		c-1.7,7.5-6.9,9.8-12.8,13.4c-5.2,3.2,0.9,7.9,0.9,7.9c2.8,3.4,5.2,7.3,5.7,11.8c0.4,2.9-0.1,5.9-1.2,8.6c-1.4,3.4-3.9,6.3-6.9,8.4
		c-3.3,2.2-8.9,2.6-5.8,5.8c4.7,4.9,3.7,8.1,3.2,13.2c-1.2,13.2-12.5,12.8-22.7,12.8c-7.5-0.1-15.1-0.2-22.6-0.4
		c-19.2-0.4-38.5-1-57.7-1.6C-1269,14.4-1283.3,14-1297.8,13.5z"/>
	<path class="st2" d="M-1323.1,26.1h-44.7c-10.5,0-19-8.5-19-19v-120.8c0-10.5,8.5-19,19-19h44.7c10.5,0,19,8.5,19,19V7.1
		C-1304.1,17.6-1312.6,26.1-1323.1,26.1z"/>
</g>
<circle class="st3" cx="230" cy="230" r="228"/>
<path class="st4" d="M457.8,239.3l-109-108.9L333,153l0.1,52.3L270.9,143l-94.5,234l79.5,79.5C366.6,443.9,453.2,352.2,457.8,239.3z
	"/>
<path class="st5" d="M457.8,239.3l-109-108.9L333,153l0.1,52.3L270.9,143l-94.5,234l79.5,79.5C366.6,443.9,453.2,352.2,457.8,239.3z
	"/>
<g>
	<path class="st2" d="M270.9,143c0,0,0,129.4,0,129.8c0,1-4.1,4.1-4.8,4.8c-3.7,3.8-7.1,7.8-10.6,11.7c-7.5,8.2-15.3,15.6-21.8,24.8
		c-9.1,12.9-16.4,26.9-23.2,41.1c-2.9,6-5,13.2-9.6,18c-3.4,3.6-11.7,9.7-17.3,8c-7-2.2-11.4-8.3-12.2-14
		c-1.6-10.4-2.5-21.1-0.1-31.5c2.1-9.4,5.8-18.4,11-26.5c3.2-5,10.9-16.2,9.7-22.5c-0.5-2.7-33.5-0.6-36.3-0.6
		c-8.6,0.1-17.2,0.3-25.8,0.4c-16.2,0.2-35.1-9.5-28.2-29c2.8-8.1,10.3-9.1,15.7-14.5c-6-6.1-11.7-11.9-9.5-21.5
		c1.7-7.5,6.9-9.8,12.8-13.4c5.2-3.2-0.9-7.9-0.9-7.9c-2.8-3.4-5.2-7.3-5.7-11.8c-0.4-2.9,0.1-5.9,1.2-8.6c1.4-3.4,3.9-6.3,6.9-8.4
		c3.3-2.2,8.9-2.6,5.8-5.8c-4.7-4.9-3.7-8.1-3.2-13.2c1.2-13.2,12.5-12.8,22.7-12.8c7.5,0.1,15.1,0.2,22.6,0.4
		c19.2,0.4,38.5,1,57.7,1.6C242,142.1,256.4,142.6,270.9,143z"/>
	<path class="st2" d="M296.2,130.4h44.7c10.5,0,19,8.5,19,19v120.8c0,10.5-8.5,19-19,19h-44.7c-10.5,0-19-8.5-19-19V149.4
		C277.2,138.9,285.7,130.4,296.2,130.4z"/>
</g>
</svg>
