<?xml version="1.0" encoding="utf-8"?>
<!-- Generator: Adobe Illustrator 19.2.1, SVG Export Plug-In . SVG Version: 6.00 Build 0)  -->
<svg version="1.1" id="_x2014_ÎÓÈ_x5F_1" xmlns="http://www.w3.org/2000/svg" xmlns:xlink="http://www.w3.org/1999/xlink"
	 x="0px" y="0px" viewBox="0 0 460 460" style="enable-background:new 0 0 460 460;" xml:space="preserve">
<style type="text/css">
	.st0{fill:#39B54A;stroke:#FFFFFF;stroke-width:4;stroke-miterlimit:10;}
	.st1{fill:#159E43;}
	.st2{fill:#FFFFFF;}
	.st3{fill:#C1272D;}
	.st4{fill:#CCCCCC;}
</style>
<circle class="st0" cx="230" cy="230" r="228"/>
<path class="st1" d="M454.5,269.8L284,99.3l-37.1,51.9L275,290.1l-98.7-98.7l-66.5,151.7l114.8,114.8c1.8,0,3.6,0.1,5.4,0.1
	C342.3,458,435.7,376.7,454.5,269.8z"/>
<g>
	<path class="st2" d="M189.6,333.3c0,0,0-129.4,0-129.8c0-1,4.1-4.1,4.8-4.8c3.7-3.8,7.1-7.8,10.6-11.7c7.5-8.2,15.3-15.6,21.8-24.8
		c9.1-12.9,16.4-26.9,23.2-41.1c2.9-6,5-13.2,9.6-18c3.4-3.6,11.7-9.7,17.3-8c7,2.2,11.4,8.3,12.2,14c1.6,10.4,2.5,21.1,0.1,31.5
		c-2.1,9.4-5.8,18.4-11,26.5c-3.2,5-10.9,16.2-9.7,22.5c0.5,2.7,33.5,0.6,36.3,0.6c8.6-0.1,17.2-0.3,25.8-0.4
		c16.2-0.2,35.1,9.5,28.2,29c-2.8,8.1-10.3,9.1-15.7,14.5c6,6.1,11.7,11.9,9.5,21.5c-1.7,7.5-6.9,9.8-12.8,13.4
		c-5.2,3.2,0.9,7.9,0.9,7.9c2.8,3.4,5.2,7.3,5.7,11.8c0.4,2.9-0.1,5.9-1.2,8.6c-1.4,3.4-3.9,6.3-6.9,8.4c-3.3,2.2-8.9,2.6-5.8,5.8
		c4.7,4.9,3.7,8.1,3.2,13.2c-1.2,13.2-12.5,12.8-22.7,12.8c-7.5-0.1-15.1-0.2-22.6-0.4c-19.2-0.4-38.5-1-57.7-1.6
		C218.5,334.3,204.2,333.8,189.6,333.3z"/>
	<path class="st2" d="M164.4,345.9h-44.7c-10.5,0-19-8.5-19-19V206.1c0-10.5,8.5-19,19-19h44.7c10.5,0,19,8.5,19,19V327
		C183.3,337.4,174.8,345.9,164.4,345.9z"/>
</g>
<g>
	<circle class="st3" cx="1717.4" cy="549.8" r="228"/>
	<path class="st3" d="M1945.2,559.2l-108.9-108.9l-15.8,22.6l0.1,52.3l-62.2-62.2L1664,696.9l79.5,79.5
		C1854.1,763.7,1940.6,672,1945.2,559.2z"/>
	<path class="st4" d="M1945.2,559.2l-108.9-108.9l-15.8,22.6l0.1,52.3l-62.2-62.2L1664,696.9l79.5,79.5
		C1854.1,763.7,1940.6,672,1945.2,559.2z"/>
	<g>
		<path class="st2" d="M1758.4,462.9c0,0,0,129.4,0,129.8c0,1-4.1,4.1-4.8,4.8c-3.7,3.8-7.1,7.8-10.6,11.7
			c-7.5,8.2-15.3,15.6-21.8,24.8c-9.1,12.9-16.4,26.9-23.2,41.1c-2.9,6-5,13.2-9.6,18c-3.4,3.6-11.7,9.7-17.3,8
			c-7-2.2-11.4-8.3-12.2-14c-1.6-10.4-2.5-21.1-0.1-31.5c2.1-9.4,5.8-18.4,11-26.5c3.2-5,10.9-16.2,9.7-22.5
			c-0.5-2.7-33.5-0.6-36.3-0.6c-8.6,0.1-17.2,0.3-25.8,0.4c-16.2,0.2-35.1-9.5-28.2-29c2.8-8.1,10.3-9.1,15.7-14.5
			c-6-6.1-11.7-11.9-9.5-21.5c1.7-7.5,6.9-9.8,12.8-13.4c5.2-3.2-0.9-7.9-0.9-7.9c-2.8-3.4-5.2-7.3-5.7-11.8
			c-0.4-2.9,0.1-5.9,1.2-8.6c1.4-3.4,3.9-6.3,6.9-8.4c3.3-2.2,8.9-2.6,5.8-5.8c-4.7-4.9-3.7-8.1-3.2-13.2
			c1.2-13.2,12.5-12.8,22.7-12.8c7.5,0.1,15.1,0.2,22.6,0.4c19.2,0.4,38.5,1,57.7,1.6C1729.5,461.9,1743.8,462.4,1758.4,462.9z"/>
		<path class="st2" d="M1783.6,450.2h44.7c10.5,0,19,8.5,19,19V590c0,10.5-8.5,19-19,19h-44.7c-10.5,0-19-8.5-19-19V469.2
			C1764.7,458.7,1773.2,450.2,1783.6,450.2z"/>
	</g>
</g>
</svg>
